<svg xmlns="http://www.w3.org/2000/svg" width="1440" height="900" viewBox="0 0 1440 900"><rect width="1440" height="900" fill="#efe8d8"/><rect x="18" y="18" width="1404" height="58" fill="#15243a"/><text x="42" y="54" fill="#fbf7eb" font-family="Arial" font-size="22" font-weight="700">RO  RelayOps</text><text x="1172" y="53" fill="#ffc3a7" font-family="Arial" font-size="13" font-weight="700">SYNTHETIC DATA</text><rect x="18" y="76" width="1404" height="126" fill="#fbf7eb" stroke="#15243a" stroke-width="2"/><text x="42" y="112" fill="#1c5673" font-family="Arial" font-size="13">DECISION PACKET SYN-1042</text><text x="42" y="164" fill="#15243a" font-family="Arial" font-size="38" font-weight="700">Water is crossing an active transit lane.</text><rect x="18" y="202" width="238" height="644" fill="#15243a"/><text x="38" y="242" fill="#fbf7eb" font-family="Arial" font-size="16" font-weight="700">CHRONOLOGY</text><path d="M60 285v360" stroke="#f0a17d" stroke-width="3"/><circle cx="60" cy="310" r="7" fill="#f0a17d"/><circle cx="60" cy="400" r="7" fill="#f0a17d"/><circle cx="60" cy="490" r="7" fill="#f0a17d"/><circle cx="60" cy="580" r="9" fill="#fbf7eb"/><text x="82" y="314" fill="#fbf7eb" font-family="Arial" font-size="13">Request normalized</text><text x="82" y="404" fill="#fbf7eb" font-family="Arial" font-size="13">Injection scan clear</text><text x="82" y="494" fill="#fbf7eb" font-family="Arial" font-size="13">Jurisdiction matched</text><text x="82" y="584" fill="#fbf7eb" font-family="Arial" font-size="13">Operator decision</text><rect x="256" y="202" width="812" height="644" fill="#fbf7eb" stroke="#15243a" stroke-width="2"/><text x="290" y="252" fill="#1c5673" font-family="Arial" font-size="13">RECOMMENDED ROUTE</text><text x="290" y="296" fill="#15243a" font-family="Arial" font-size="30" font-weight="700">Water Response · Crew 2</text><rect x="290" y="330" width="744" height="64" fill="#efe8d8"/><rect x="290" y="394" width="744" height="64" fill="#fbf7eb" stroke="#c6bfaf"/><rect x="290" y="458" width="744" height="64" fill="#efe8d8"/><rect x="290" y="522" width="744" height="64" fill="#fbf7eb" stroke="#c6bfaf"/><text x="310" y="368" fill="#15243a" font-family="Arial" font-size="16">Source     Resident web intake                                  VERIFIED</text><text x="310" y="432" fill="#15243a" font-family="Arial" font-size="16">Location   Zone 4 · West transit lane                           VERIFIED</text><text x="310" y="496" fill="#15243a" font-family="Arial" font-size="16">Signal     Water covering active roadway                        VERIFIED</text><text x="310" y="560" fill="#a93410" font-family="Arial" font-size="16" font-weight="700">Unknown    Exact depth and spread                               REVIEW</text><rect x="290" y="626" width="250" height="48" fill="#a93410"/><text x="316" y="657" fill="#fff" font-family="Arial" font-size="15" font-weight="700">INSPECT ROUTING RATIONALE</text><rect x="1068" y="202" width="354" height="644" fill="#d9d1c1" stroke="#15243a" stroke-width="2"/><path d="M1104 254h270v215h-270z" fill="#fbf7eb" stroke="#15243a"/><path d="M1192 254v215M1282 254v215M1104 326h270M1104 398h270" stroke="#c6bfaf"/><rect x="1282" y="398" width="92" height="71" fill="#a93410"/><text x="1310" y="433" fill="#fff" font-family="Arial" font-weight="700" font-size="14">Z4</text><text x="1104" y="526" fill="#15243a" font-family="Arial" font-size="23" font-weight="700">Next safe action</text><text x="1104" y="562" fill="#15243a" font-family="Arial" font-size="14">Verify roadway depth, then release</text><text x="1104" y="584" fill="#15243a" font-family="Arial" font-size="14">the crew brief through an authorized channel.</text></svg>
